<svg width="80" height="26" viewBox="0 0 80 26" fill="none" xmlns="http://www.w3.org/2000/svg">
<g clip-path="url(#clip0_1844_1589)">
<mask id="mask0_1844_1589" style="mask-type:luminance" maskUnits="userSpaceOnUse" x="0" y="0" width="80" height="26">
<path d="M80 0.5H0V25.5H80V0.5Z" fill="white"/>
</mask>
<g mask="url(#mask0_1844_1589)">
<path d="M10.0559 13.3199V11.7362H10.089H11.3813V12.5119H10.3707V13.336L20.145 17.1822V0.714844H0V17.2307L10.0559 13.3199ZM13.8165 4.10851H14.7939V7.64761C14.7939 8.7142 15.4897 9.37678 16.4009 9.37678C17.3121 9.37678 18.0079 8.73035 18.0079 7.64761V4.10851H18.9853V7.63146C18.9853 9.47372 17.7925 10.4595 16.4009 10.4595C15.0093 10.4595 13.8165 9.45757 13.8165 7.63146V4.10851ZM8.25014 4.10851H9.39325L12.3752 8.69805V4.10851H13.3526V10.2171H12.2096L9.2276 5.62757V10.2171H8.25014V4.10851ZM1.49099 4.10851H2.75005L4.57236 8.19706C5.16877 6.82345 5.76517 5.43365 6.34501 4.10851H7.55434L7.76974 10.2171H6.79228L6.64319 5.70837L4.90372 9.6838H4.20792L2.41872 5.72456L2.26962 10.2332H1.29219L1.49099 4.10851Z" fill="#001965"/>
<path d="M1.24249 20.0938H0V25.5074H1.30876V20.0938H1.27563C1.25906 20.0938 1.25906 20.0938 1.24249 20.0938Z" fill="#001965"/>
<path d="M6.64 20.0938H5.4638H5.44723H5.41406V25.5074H6.6897V20.0938H6.67313C6.65657 20.0938 6.64 20.0938 6.64 20.0938Z" fill="#001965"/>
<path d="M9.22717 20.0938H8.16688H8.15032H8.11719V25.5074H9.39282V20.1099H9.37626C9.31 20.1099 9.27686 20.0938 9.22717 20.0938Z" fill="#001965"/>
<path d="M10.9791 20.0938C10.9294 20.1099 10.8963 20.1099 10.8466 20.1099H10.7969V25.5074H12.0725V20.0938H10.9791Z" fill="#001965"/>
<path d="M13.4844 20.0938V25.5074H14.76V20.0938C14.76 20.0938 14.76 20.0938 14.7434 20.0938H13.4844Z" fill="#001965"/>
<path d="M16.2538 20.0938H16.1875V25.5074H17.4631V20.0938H16.2869C16.2703 20.0938 16.2703 20.0938 16.2538 20.0938Z" fill="#001965"/>
<path d="M18.9491 20.0938H18.8828V25.5074H20.1584V20.0938H18.9822C18.9656 20.0938 18.9491 20.0938 18.9491 20.0938Z" fill="#001965"/>
<path d="M3.92811 20.0938H2.75189H2.73532H2.71875V25.5074H3.99438V20.0938H3.96124C3.94468 20.0938 3.94468 20.0938 3.92811 20.0938Z" fill="#001965"/>
<path d="M27.7315 2.50864L25.7766 6.95273H24.998L22.9934 2.50864L22.8277 7.55067H21.7344L21.9663 0.714844H23.3745L25.4287 5.28821C26.108 3.75298 26.7706 2.20159 27.4167 0.714844H28.7752L29.0071 7.55067H27.8971L27.7315 2.50864Z" fill="#001965"/>
<path d="M34.3408 6.29015H31.2926L30.8287 7.55067H29.7188L32.2203 0.714844H33.4628L35.9643 7.55067H34.8047L34.3408 6.29015ZM31.7233 5.09428H33.9101L32.8167 2.12079L31.7233 5.09428Z" fill="#001965"/>
<path d="M42.2565 9.19762C41.8755 9.19762 41.4779 9.01985 41.1466 8.64818L40.3015 7.71088C40.1525 7.74318 39.9868 7.74318 39.8211 7.74318C37.8166 7.74318 36.5078 6.04635 36.5078 4.05864C36.5078 1.81236 38.0154 0.519531 39.8211 0.519531C41.627 0.519531 43.1345 1.81236 43.1345 4.05864C43.1345 5.43227 42.5215 6.62814 41.4945 7.27453L41.7595 7.54925C42.008 7.80782 42.2399 7.93711 42.4719 7.93711C42.6872 7.93711 42.9191 7.80782 43.1345 7.66238L43.4658 8.72897C43.1842 8.98754 42.5878 9.19762 42.2565 9.19762ZM37.6344 4.05864C37.6344 5.52921 38.6449 6.54734 39.8211 6.54734C40.9975 6.54734 42.008 5.52921 42.008 4.05864C42.008 2.58805 40.9809 1.73155 39.8211 1.73155C38.678 1.73155 37.6344 2.58805 37.6344 4.05864Z" fill="#001965"/>
<path d="M48.3278 2.26431C47.7314 1.95726 47.0187 1.71486 46.323 1.71486C45.6106 1.71486 45.0971 1.92494 45.0971 2.44207C45.0971 3.08849 45.9585 3.23393 46.8531 3.50865C47.8308 3.8157 48.8579 4.26819 48.8579 5.59335C48.8579 6.93462 47.7149 7.79113 46.3561 7.79113C45.5444 7.79113 44.5836 7.51641 43.9375 7.16089L44.2025 5.96502C44.7989 6.28823 45.5775 6.59526 46.3064 6.59526C47.1015 6.59526 47.7646 6.36903 47.7646 5.6418C47.7646 5.07621 47.085 4.88228 46.2898 4.6722C45.2462 4.36515 44.0203 3.94498 44.0203 2.53904C44.0203 1.29469 44.9811 0.535156 46.3064 0.535156C47.0518 0.535156 48.0462 0.777561 48.6426 1.06845L48.3278 2.26431Z" fill="#001965"/>
<path d="M54.5819 4.69027V0.714844H55.6753V4.64178C55.6753 6.69416 54.333 7.8092 52.7593 7.8092C51.1856 7.8092 49.8438 6.69416 49.8438 4.64178V0.714844H50.9371V4.67412C50.9371 5.87 51.7322 6.61337 52.7427 6.61337C53.7864 6.61337 54.5819 5.88615 54.5819 4.69027Z" fill="#001965"/>
<path d="M56.375 0.714844H61.8255V1.92687H59.655V7.55067H58.5451V1.92687H56.375V0.714844Z" fill="#001965"/>
<path d="M22.8981 16.3886H21.8047V9.55273H23.0803L26.4433 14.6917V9.55273H27.5367V16.3886H26.2611L22.8981 11.2496V16.3886Z" fill="#001965"/>
<path d="M32.9502 15.1281H29.9019L29.4381 16.3886H28.3281L30.8297 9.55273H32.0722L34.5737 16.3886H33.4141L32.9502 15.1281ZM30.3327 13.9322H32.5195L31.4261 10.9587L30.3327 13.9322Z" fill="#001965"/>
<path d="M40.0886 16.5179C39.5916 16.5179 39.2106 16.2754 38.8461 15.726C38.4983 15.1927 38.1669 14.4978 37.819 13.916H36.4606V16.3724H35.3672V9.55273H38.2001C39.3763 9.55273 40.3703 10.3931 40.3703 11.6859C40.3703 12.6879 39.807 13.4312 38.9953 13.7383L39.6911 14.9018C39.8236 15.1281 40.0224 15.2412 40.2046 15.2412C40.3869 15.2412 40.5858 15.1281 40.8012 14.9503L41.1325 16.0169C40.8177 16.3401 40.4533 16.5179 40.0886 16.5179ZM36.4606 10.7486V12.7686H38.0178C38.7964 12.7686 39.2769 12.4131 39.2769 11.6859C39.2769 11.1041 38.8627 10.7486 38.2001 10.7486H36.4606Z" fill="#001965"/>
<path d="M43.023 9.55273H41.9297V16.3886H43.023V9.55273Z" fill="#001965"/>
<path d="M45.5552 13.0272L48.4049 9.55273H49.7964L46.9136 12.9787L49.8296 16.3886H48.3386L45.5552 13.0919V16.3886H44.4453V9.55273H45.5552V13.0272Z" fill="#001965"/>
<path d="M55.4976 11.3788C55.4976 11.9121 55.2822 12.3485 54.9344 12.6879C55.4645 12.9949 55.8455 13.5282 55.8455 14.2715C55.8455 15.5321 54.8847 16.3724 53.6418 16.3724H50.5938V9.55273H53.4927C54.5533 9.55273 55.4976 10.2315 55.4976 11.3788ZM51.6871 10.7486V12.3485H53.294C53.9731 12.3485 54.3873 12.0414 54.3873 11.4435C54.3873 10.991 54.0228 10.7486 53.443 10.7486H51.6871ZM51.6871 13.4797V15.1927H53.559C54.2548 15.1927 54.7356 14.8533 54.7356 14.2392C54.7356 13.7544 54.321 13.4797 53.7247 13.4797H51.6871Z" fill="#001965"/>
<path d="M60.8024 15.1281H57.7544L57.2905 16.3886H56.1641L58.6655 9.55273H59.9079L62.4097 16.3886H61.2497L60.8024 15.1281ZM58.1851 13.9322H60.3717L59.2784 10.9587L58.1851 13.9322Z" fill="#001965"/>
<path d="M64.7076 12.3969L66.3476 9.55273H67.7225L65.2542 13.6252V16.3886H64.1443V13.6413L61.6094 9.55273H63.0344L64.7076 12.3969Z" fill="#001965"/>
<path d="M68.4375 9.55273H73.2088V10.7486H69.5312V12.3161H72.8444V13.512H69.5312V15.1927H73.2916V16.3886H68.4375V9.55273Z" fill="#001965"/>
<path d="M76.8979 14.9988L78.8858 9.55273H79.9957L77.5108 16.3886H76.2514L73.75 9.55273H74.9096L76.8979 14.9988Z" fill="#001965"/>
<path d="M26.4411 22.3538V18.3945H27.5346V22.3215C27.5346 24.3738 26.1927 25.4889 24.6188 25.4889C23.045 25.4889 21.7031 24.3738 21.7031 22.3215V18.3945H22.7965V22.3538C22.7965 23.5496 23.5917 24.293 24.6023 24.293C25.6625 24.293 26.4411 23.5658 26.4411 22.3538Z" fill="#001965"/>
<path d="M29.984 25.2303H28.8906V18.3945H30.1663L33.5293 23.5335V18.3945H34.6227V25.2303H33.347L29.984 20.0752V25.2303Z" fill="#001965"/>
<path d="M37.1559 18.3945H36.0625V25.2303H37.1559V18.3945Z" fill="#001965"/>
<path d="M41.1009 23.8405L43.0888 18.3945H44.1987L41.6973 25.2303H40.4549L37.9531 18.3945H39.1128L41.1009 23.8405Z" fill="#001965"/>
<path d="M44.9922 18.3945H49.7635V19.5904H46.0855V21.1579H49.3991V22.3538H46.0855V24.0345H49.8298V25.2303H44.9922V18.3945Z" fill="#001965"/>
<path d="M55.6826 25.3596C55.1856 25.3596 54.8046 25.1172 54.4397 24.5677C54.0918 24.0345 53.7605 23.3396 53.4127 22.7578H52.0543V25.2303H50.9609V18.3945H53.7937C54.9702 18.3945 55.9642 19.2348 55.9642 20.5277C55.9642 21.5296 55.4009 22.273 54.5892 22.58L55.285 23.7436C55.4175 23.9698 55.6163 24.0829 55.7985 24.0829C55.9807 24.0829 56.1795 23.9698 56.3949 23.7921L56.7262 24.8586C56.4114 25.1818 56.0304 25.3596 55.6826 25.3596ZM52.0543 19.5904V21.6104H53.6114C54.39 21.6104 54.8708 21.2549 54.8708 20.5277C54.8708 19.9459 54.4563 19.5904 53.7937 19.5904H52.0543Z" fill="#001965"/>
<path d="M61.4915 19.9283C60.8951 19.6213 60.1828 19.3789 59.487 19.3789C58.7747 19.3789 58.2612 19.589 58.2612 20.1061C58.2612 20.7526 59.1226 20.898 60.0171 21.1727C60.9945 21.4797 62.022 21.9322 62.022 23.2574C62.022 24.5987 60.8785 25.4552 59.5201 25.4552C58.7084 25.4552 57.7476 25.1804 57.1016 24.8249L57.3666 23.6291C57.963 23.9523 58.7416 24.2593 59.4704 24.2593C60.2656 24.2593 60.9282 24.0331 60.9282 23.3059C60.9282 22.7403 60.249 22.5463 59.4539 22.3362C58.4102 22.0292 57.1844 21.609 57.1844 20.2031C57.1844 18.9587 58.1452 18.1992 59.4704 18.1992C60.2159 18.1992 61.2098 18.4416 61.8062 18.7325L61.4915 19.9283Z" fill="#001965"/>
<path d="M64.1949 18.3945H63.1016V25.2303H64.1949V18.3945Z" fill="#001965"/>
<path d="M64.9766 18.3945H70.4436V19.5904H68.2566V25.2303H67.1632V19.5904H64.9766V18.3945Z" fill="#001965"/>
<path d="M73.59 21.2387L75.23 18.3945H76.6053L74.1201 22.4669V25.2303H73.0267V22.4831L70.4922 18.3945H71.9168L73.59 21.2387Z" fill="#001965"/>
</g>
</g>
<defs>
<clipPath id="clip0_1844_1589">
<rect width="80" height="25" fill="white" transform="translate(0 0.5)"/>
</clipPath>
</defs>
</svg>
